<svg xmlns="http://www.w3.org/2000/svg" xml:space="preserve" viewBox="0 0 76.849 76.849"><g transform="translate(-47.149 -48.263)"><rect width="76.849" height="76.849" x="47.149" y="48.263" fill="#068c83" rx="8.642" ry="8.642"/><g fill="#f9f9f9" transform="translate(-.743)"><rect width="59.771" height="9.281" x="56.43" y="106.549" fill-opacity=".358" rx="4.641" ry="4.641"/><rect width="43.501" height="9.281" x="56.43" y="106.549" rx="4.641" ry="4.512"/></g><g fill="#f9f9f9" stroke-width="4.212"><path d="M94.252 83.28q.334-.36.655-.764l8.636-10.9c8.21-10.362-6.847-22.292-15.057-11.93l-8.636 10.9c-5.124 6.468-1.185 13.546 4.497 15.433 0 0 3.422-3.78 3.244-4.86-1.147.13-2.266-.237-3.132-.923-1.7-1.347-2.427-3.922-.48-6.379l8.635-10.9c3.893-4.913 10.753.522 6.8 5.388l-5.999 7.572c.992 1.947 1.58 4.182.837 7.364"/><path d="M76.894 74.379q-.334.36-.655.765l-8.636 10.9c-8.21 10.362 6.848 22.292 15.057 11.93l8.636-10.9c5.125-6.468 1.185-13.546-4.497-15.434 0 0-3.422 3.781-3.244 4.86 1.147-.13 2.266.237 3.132.924 1.7 1.347 2.427 3.922.48 6.378l-8.635 10.9c-3.893 4.914-10.752-.521-6.8-5.387l5.999-7.573c-.992-1.947-1.58-4.182-.837-7.363"/></g></g></svg>